<svg xmlns="http://www.w3.org/2000/svg" width="37" height="37" viewBox="0 0 37 37">
  <g id="Polygon_1" data-name="Polygon 1" fill="none">
    <path d="M18.5,0l5.55,12.421L37,14.133l-9.52,9.388L29.934,37,18.5,30.381,7.066,37,9.52,23.521,0,14.133l12.95-1.712Z" stroke="none"/>
    <path d="M 18.5 2.451271057128906 L 13.63503074645996 13.33921051025391 L 2.157791137695312 14.85623168945312 L 10.59839057922363 23.18016052246094 L 8.437618255615234 35.05073165893555 L 18.5 29.22576904296875 L 28.56238174438477 35.05073165893555 L 26.401611328125 23.18016052246094 L 34.84220886230469 14.85623168945312 L 23.36497116088867 13.33921051025391 L 18.5 2.451271057128906 M 18.5 0 L 24.04999923706055 12.42106056213379 L 37 14.13274002075195 L 27.4800910949707 23.52106094360352 L 29.93362998962402 37 L 18.5 30.38124084472656 L 7.066370010375977 37 L 9.51991081237793 23.52106094360352 L 0 14.13274002075195 L 12.95000076293945 12.42106056213379 L 18.5 0 Z" stroke="none" fill="#b1b1b1"/>
  </g>
</svg>
